<svg width="82" height="82" viewBox="0 0 82 82" fill="none" xmlns="http://www.w3.org/2000/svg">
<g id="ant-design:play-circle-filled">
<path id="Vector" d="M40.9258 5.6875C21.3561 5.6875 5.48828 21.5553 5.48828 41.125C5.48828 60.6947 21.3561 76.5625 40.9258 76.5625C60.4955 76.5625 76.3633 60.6947 76.3633 41.125C76.3633 21.5553 60.4955 5.6875 40.9258 5.6875ZM52.3243 41.6708L35.0485 54.24C34.9538 54.3081 34.8422 54.3487 34.7259 54.3575C34.6096 54.3662 34.4931 54.3427 34.3893 54.2896C34.2855 54.2364 34.1983 54.1557 34.1374 54.0563C34.0765 53.9568 34.0441 53.8425 34.0439 53.7259V28.6032C34.0436 28.4864 34.0755 28.3717 34.1364 28.2719C34.1972 28.1721 34.2844 28.0911 34.3884 28.0378C34.4925 27.9846 34.6092 27.9612 34.7257 27.9702C34.8422 27.9793 34.954 28.0204 35.0485 28.0891L52.3243 40.6504C52.4059 40.7081 52.4725 40.7846 52.5185 40.8733C52.5644 40.9621 52.5884 41.0606 52.5884 41.1606C52.5884 41.2606 52.5644 41.3591 52.5185 41.4478C52.4725 41.5366 52.4059 41.6131 52.3243 41.6708Z" fill="white"/>
</g>
</svg>
