<svg width="38" height="45" viewBox="0 0 38 45" fill="none" xmlns="http://www.w3.org/2000/svg">
<path d="M37.3228 14.4466V32.2847C37.3227 32.7914 37.1893 33.2891 36.9358 33.7278C36.6823 34.1665 36.3178 34.5307 35.8789 34.7839L20.4317 43.7029C19.9932 43.9566 19.4956 44.0902 18.989 44.0902C18.4825 44.0902 17.9849 43.9566 17.5464 43.7029L2.09671 34.7839C1.6578 34.5307 1.29329 34.1665 1.03983 33.7278C0.786364 33.2891 0.652891 32.7914 0.652832 32.2847L0.652832 14.4466C0.65314 13.94 0.786718 13.4424 1.04016 13.0038C1.29359 12.5651 1.65797 12.2008 2.09671 11.9475L17.5464 3.03831L17.5735 3.02355L16.7544 1.59444C16.7077 1.51288 16.6842 1.42009 16.6866 1.32615C16.6889 1.23221 16.717 1.14072 16.7677 1.0616C16.8184 0.982492 16.8899 0.918794 16.9742 0.877431C17.0586 0.836069 17.1527 0.818625 17.2463 0.826995L24.3796 1.54032C24.4605 1.5483 24.5384 1.57546 24.6068 1.61955C24.6751 1.66364 24.732 1.7234 24.7726 1.79386C24.8133 1.86432 24.8365 1.94346 24.8405 2.0247C24.8444 2.10595 24.8289 2.18697 24.7953 2.26103L23.6195 4.87083L23.226 5.74404L21.8485 8.79659C21.8097 8.8825 21.748 8.95604 21.6701 9.00909C21.5922 9.06214 21.5011 9.09264 21.407 9.09722C21.3129 9.1018 21.2193 9.08028 21.1366 9.03505C21.0539 8.98981 20.9853 8.92261 20.9384 8.84086L20.1685 7.50768L17.6595 8.95647H17.6399L17.5464 9.00567L7.29416 14.9435C6.85405 15.1959 6.48819 15.5597 6.23342 15.9985C5.97865 16.4372 5.84396 16.9353 5.84291 17.4426V29.2888C5.84371 29.7962 5.9783 30.2944 6.23309 30.7331C6.48789 31.1719 6.85388 31.5357 7.29416 31.7879L17.5464 37.7208C17.9849 37.9745 18.4825 38.1081 18.989 38.1081C19.4956 38.1081 19.9932 37.9745 20.4317 37.7208L30.6889 31.7977C31.1301 31.5444 31.4965 31.1789 31.751 30.7383C32.0054 30.2977 32.1388 29.7976 32.1376 29.2888V17.4426C32.1363 16.9362 32.0023 16.439 31.749 16.0005C31.4957 15.562 31.1318 15.1976 30.6938 14.9435L29.9558 14.518C29.5819 14.3021 29.1577 14.1884 28.726 14.1884C28.2942 14.1884 27.87 14.3021 27.4961 14.518L24.8076 16.075L18.0088 20.0106L17.1947 18.5347C17.1495 18.4522 17.0824 18.3837 17.0007 18.3368C16.9191 18.29 16.8262 18.2665 16.7321 18.269C16.638 18.2716 16.5465 18.3 16.4675 18.3513C16.3885 18.4025 16.3252 18.4745 16.2845 18.5593L13.4214 24.5218C13.3844 24.5955 13.3658 24.6771 13.3672 24.7596C13.3685 24.842 13.3898 24.923 13.4292 24.9954C13.4685 25.0679 13.5249 25.1298 13.5933 25.1758C13.6618 25.2218 13.7404 25.2506 13.8223 25.2597L20.412 26.064C20.5055 26.0749 20.6001 26.0599 20.6856 26.0207C20.7711 25.9815 20.8443 25.9196 20.897 25.8418C20.9498 25.7639 20.9802 25.673 20.9849 25.579C20.9896 25.4851 20.9684 25.3916 20.9236 25.3089L19.9397 23.5034L27.4838 19.1497C27.5573 19.1072 27.6405 19.0844 27.7254 19.0836C27.8103 19.0828 27.894 19.104 27.9683 19.1451C28.0425 19.1862 28.1049 19.2458 28.1493 19.3182C28.1938 19.3905 28.2187 19.4732 28.2217 19.558C28.2217 19.6072 28.2217 19.6564 28.2217 19.708V27.0381C28.2219 27.5445 28.0888 28.0421 27.8358 28.4807C27.5828 28.9194 27.2188 29.2838 26.7803 29.5372L20.4341 33.1998C19.9957 33.4535 19.4981 33.5871 18.9915 33.5871C18.4849 33.5871 17.9873 33.4535 17.5489 33.1998L11.1978 29.5298C10.7589 29.2767 10.3944 28.9125 10.1409 28.4738C9.88744 28.0351 9.75397 27.5374 9.75391 27.0307V19.7007C9.7537 19.197 9.88555 18.7021 10.1363 18.2653C10.3871 17.8286 10.748 17.4652 11.183 17.2114L17.5464 13.539L22.9013 10.4471L26.859 8.16197C27.2329 7.94608 27.6571 7.83243 28.0889 7.83243C28.5207 7.83243 28.9448 7.94608 29.3188 8.16197L35.8789 11.9475C36.3177 12.2008 36.682 12.5651 36.9355 13.0038C37.1889 13.4424 37.3225 13.94 37.3228 14.4466Z" fill="#2D796D"/>
</svg>
