<svg width="124" height="139" viewBox="0 0 124 139" fill="none" xmlns="http://www.w3.org/2000/svg">
<g id="Layer 16" filter="url(#filter0_d_407_10389)">
<g id="Layer 2">
<path id="Vector" d="M103.969 51.2689V92.1003C103.969 93.26 103.663 94.3993 103.083 95.4035C102.503 96.4077 101.668 97.2414 100.664 97.8208L65.305 118.236C64.3014 118.817 63.1624 119.123 62.0028 119.123C60.8433 119.123 59.7042 118.817 58.7006 118.236L23.3363 97.8208C22.3316 97.2414 21.4973 96.4077 20.9171 95.4035C20.3369 94.3993 20.0314 93.26 20.0312 92.1003V51.2689C20.032 50.1093 20.3377 48.9702 20.9178 47.9661C21.498 46.962 22.332 46.1282 23.3363 45.5484L58.7006 25.1552L58.7625 25.1215L56.8876 21.8502C56.7808 21.6635 56.7271 21.4511 56.7325 21.2361C56.7379 21.0211 56.8021 20.8117 56.9182 20.6306C57.0343 20.4495 57.1978 20.3037 57.3909 20.209C57.5841 20.1143 57.7995 20.0744 58.0137 20.0935L74.3418 21.7264C74.5271 21.7446 74.7053 21.8068 74.8618 21.9077C75.0183 22.0086 75.1484 22.1454 75.2414 22.3067C75.3345 22.468 75.3877 22.6491 75.3967 22.8351C75.4057 23.0211 75.3703 23.2065 75.2933 23.376L72.602 29.3499L71.7011 31.3486L68.5481 38.3359C68.4594 38.5326 68.3181 38.7009 68.1397 38.8223C67.9614 38.9438 67.753 39.0136 67.5375 39.0241C67.322 39.0346 67.1078 38.9853 66.9185 38.8818C66.7293 38.7782 66.5723 38.6244 66.4649 38.4373L64.7026 35.3856L58.9596 38.7019H58.9146L58.7006 38.8145L35.2332 52.4062C34.2258 52.9839 33.3884 53.8168 32.8052 54.821C32.222 55.8252 31.9137 56.9654 31.9113 58.1267V85.2425C31.9132 86.4039 32.2212 87.5443 32.8045 88.5486C33.3877 89.553 34.2254 90.3857 35.2332 90.963L58.7006 104.543C59.7042 105.124 60.8433 105.43 62.0028 105.43C63.1624 105.43 64.3014 105.124 65.305 104.543L88.7837 90.9855C89.7937 90.4056 90.6325 89.569 91.2149 88.5604C91.7973 87.5518 92.1026 86.4072 92.0999 85.2425V58.1267C92.097 56.9675 91.7902 55.8293 91.2104 54.8257C90.6305 53.822 89.7976 52.9878 88.7949 52.4062L87.1058 51.4322C86.2499 50.938 85.279 50.6778 84.2906 50.6778C83.3023 50.6778 82.3314 50.938 81.4754 51.4322L75.3214 54.9962L59.7591 64.0048L57.8955 60.6266C57.792 60.4376 57.6384 60.2809 57.4516 60.1736C57.2648 60.0663 57.052 60.0126 56.8366 60.0184C56.6213 60.0242 56.4117 60.0893 56.231 60.2065C56.0502 60.3238 55.9053 60.4886 55.8122 60.6829L49.2585 74.3309C49.1738 74.4996 49.1312 74.6864 49.1343 74.8752C49.1374 75.0639 49.1861 75.2492 49.2762 75.4151C49.3664 75.581 49.4953 75.7227 49.652 75.828C49.8087 75.9333 49.9886 75.9992 50.1762 76.02L65.26 77.8611C65.4739 77.886 65.6905 77.8517 65.8862 77.762C66.082 77.6723 66.2494 77.5306 66.3702 77.3523C66.4909 77.174 66.5605 76.966 66.5712 76.751C66.582 76.5359 66.5335 76.322 66.4311 76.1326L64.179 71.9999L81.4473 62.0341C81.6155 61.9369 81.806 61.8848 82.0004 61.8829C82.1947 61.8811 82.3862 61.9296 82.5562 62.0236C82.7263 62.1177 82.8691 62.2542 82.9707 62.4198C83.0724 62.5855 83.1295 62.7746 83.1364 62.9688C83.1364 63.0814 83.1364 63.194 83.1364 63.3122V80.0907C83.1368 81.2499 82.8322 82.3888 82.253 83.3929C81.6738 84.3971 80.8406 85.2311 79.837 85.8112L65.3107 94.1948C64.307 94.7756 63.168 95.0814 62.0084 95.0814C60.8489 95.0814 59.7099 94.7756 58.7062 94.1948L44.1686 85.7943C43.164 85.2149 42.3296 84.3812 41.7494 83.377C41.1693 82.3728 40.8637 81.2336 40.8636 80.0738V63.2953C40.8631 62.1425 41.1649 61.0097 41.7389 60.0099C42.3129 59.0101 43.139 58.1783 44.1348 57.5974L58.7006 49.1913L70.9579 42.1139L80.0172 36.8833C80.8731 36.3891 81.844 36.129 82.8324 36.129C83.8207 36.129 84.7916 36.3891 85.6475 36.8833L100.664 45.5484C101.668 46.1282 102.502 46.962 103.082 47.9661C103.662 48.9702 103.968 50.1093 103.969 51.2689Z" fill="white"/>
</g>
</g>
<defs>
<filter id="filter0_d_407_10389" x="0.28125" y="0.338867" width="123.438" height="138.534" filterUnits="userSpaceOnUse" color-interpolation-filters="sRGB">
<feFlood flood-opacity="0" result="BackgroundImageFix"/>
<feColorMatrix in="SourceAlpha" type="matrix" values="0 0 0 0 0 0 0 0 0 0 0 0 0 0 0 0 0 0 127 0" result="hardAlpha"/>
<feOffset/>
<feGaussianBlur stdDeviation="9.875"/>
<feColorMatrix type="matrix" values="0 0 0 0 0.7875 0 0 0 0 0.7875 0 0 0 0 0.7875 0 0 0 0.3 0"/>
<feBlend mode="normal" in2="BackgroundImageFix" result="effect1_dropShadow_407_10389"/>
<feBlend mode="normal" in="SourceGraphic" in2="effect1_dropShadow_407_10389" result="shape"/>
</filter>
</defs>
</svg>
